Coordinates
version=1
nRows=29
nColumns=24
inDegrees=yes

Units are S.I. units (second, meters, Newtons, ...)
Angles are in degrees.

endheader
time	pelvis_tilt	pelvis_list	pelvis_rotation	pelvis_tx	pelvis_ty	pelvis_tz	hip_flexion_r	hip_adduction_r	hip_rotation_r	knee_angle_r	ankle_angle_r	subtalar_angle_r	mtp_angle_r	hip_flexion_l	hip_adduction_l	hip_rotation_l	knee_angle_l	ankle_angle_l	subtalar_angle_l	mtp_angle_l	lumbar_extension	lumbar_bending	lumbar_rotation
      5.27500000	     36.02659643	      1.95845303	      5.54176768	      0.57782013	      0.67385382	     -0.25590502	    -31.83892419	      4.52338712	     -8.82327034	    -13.55943101	     19.58141408	      6.29392334	      0.00000000	    -19.84678208	     -4.23742971	     -6.06881766	    -69.54366785	      6.55527507	     -3.09380953	      0.00000000	    -64.20254881	      4.31760933	     -3.30194566
      5.28000000	     35.96148906	      2.02707519	      5.17410805	      0.58311388	      0.67451402	     -0.25579796	    -32.62752216	      4.32845728	     -8.73083390	    -12.86770359	     19.54281415	      6.45332750	      0.00000000	    -18.96941635	     -3.79804381	     -6.34148132	    -69.12182331	      7.35663705	     -2.58238204	      0.00000000	    -64.20148263	      3.96747432	     -3.03328690
      5.28500000	     36.06958257	      2.03954246	      4.63822988	      0.58845321	      0.67521146	     -0.25572328	    -33.59841613	      4.08444126	     -8.43067410	    -12.18371080	     19.52411134	      6.66014943	      0.00000000	    -18.38466552	     -3.35885749	     -6.78057091	    -68.51691128	      8.10437136	     -2.07069515	      0.00000000	    -64.34569316	      3.58805884	     -2.60518486
      5.29000000	     35.95311471	      2.12183108	      4.34347870	      0.59371599	      0.67567224	     -0.25572283	    -34.29765885	      3.89696000	     -8.37871841	    -11.55158652	     19.51232022	      6.78015150	      0.00000000	    -17.45833903	     -2.93637762	     -6.95814957	    -67.95478030	      8.76842098	     -1.51223543	      0.00000000	    -64.28631131	      3.30846388	     -2.42558491
      5.29500000	     35.88072103	      2.16908441	      4.01902057	      0.59895531	      0.67607349	     -0.25572191	    -35.02428502	      3.71941744	     -8.31971482	    -10.94616905	     19.51478673	      6.94571386	      0.00000000	    -16.61648645	     -2.55713775	     -7.17921988	    -67.28695342	      9.40349057	     -0.93906663	      0.00000000	    -64.27578212	      3.03241304	     -2.18705428
      5.30000000	     35.84340027	      2.20482109	      3.67384660	      0.60417531	      0.67641803	     -0.25569748	    -35.77196006	      3.53942894	     -8.25166302	    -10.36656171	     19.53382712	      7.11202263	      0.00000000	    -15.84682333	     -2.20125362	     -7.42718902	    -66.51141607	      9.97937767	     -0.39723609	      0.00000000	    -64.30325020	      2.75249940	     -1.93408009
      5.30500000	     35.93575251	      2.22308602	      3.22725095	      0.60940249	      0.67678866	     -0.25566041	    -36.65023196	      3.30883771	     -8.13615790	     -9.80479062	     19.53127124	      7.29779003	      0.00000000	    -15.30018987	     -1.84102346	     -7.77758804	    -65.56866051	     10.50390347	      0.04245803	      0.00000000	    -64.46294088	      2.40363200	     -1.57902463
      5.31000000	     35.81781723	      2.26391307	      2.99138385	      0.61456888	      0.67692064	     -0.25569250	    -37.26676814	      3.17983450	     -8.16249950	     -9.30238621	     19.55283686	      7.38163365	      0.00000000	    -14.44708177	     -1.53107045	     -7.90528476	    -64.66286378	     10.95009948	      0.54583424	      0.00000000	    -64.42434277	      2.18429176	     -1.40738978
      5.31500000	     35.76079495	      2.27220760	      2.71081654	      0.61973388	      0.67700770	     -0.25570757	    -37.93520409	      3.04804470	     -8.18843488	     -8.82336013	     19.61554761	      7.54852211	      0.00000000	    -13.71338277	     -1.25974914	     -8.08738217	    -63.63822355	     11.37678919	      1.04325034	      0.00000000	    -64.44330410	      1.96543814	     -1.19150941
      5.32000000	     35.70004564	      2.27456789	      2.46393455	      0.62487937	      0.67703392	     -0.25581483	    -38.57351059	      2.93156742	     -8.26075307	     -8.39638955	     19.64667009	      7.65689448	      0.00000000	    -13.00651805	     -1.00069221	     -8.24171383	    -62.50652439	     11.74310073	      1.42795958	      0.00000000	    -64.45870780	      1.79319977	     -0.95642748
      5.32500000	     35.71364741	      2.26598509	      2.16028665	      0.63002490	      0.67699848	     -0.25576817	    -39.30049618	      2.80087161	     -8.27059845	     -7.94958734	     19.76336764	      7.87730541	      0.00000000	    -12.42477755	     -0.77670647	     -8.45376694	    -61.28380364	     12.07544440	      1.85392916	      0.00000000	    -64.55961898	      1.53875207	     -0.74170987
      5.33000000	     35.77961882	      2.24590343	      1.84880979	      0.63516497	      0.67694238	     -0.25580034	    -40.05846625	      2.66298226	     -8.31589084	     -7.55838234	     19.86219881	      8.05989155	      0.00000000	    -11.96230120	     -0.55768606	     -8.68295011	    -59.91584546	     12.39242407	      2.13594644	      0.00000000	    -64.70229767	      1.32184995	     -0.50535276
      5.33500000	     35.71325008	      2.22129636	      1.66661801	      0.64027190	      0.67672216	     -0.25587004	    -40.65470679	      2.61295149	     -8.41298674	     -7.19721748	     19.94250034	      8.14835677	      0.00000000	    -11.32459238	     -0.39144719	     -8.77821101	    -58.54176612	     12.58506650	      2.46421254	      0.00000000	    -64.72625748	      1.17929477	     -0.30087827
      5.34000000	     35.63090876	      2.16880509	      1.52283449	      0.64533289	      0.67640937	     -0.25598034	    -41.19827105	      2.60696737	     -8.56095802	     -6.89914065	     20.00888765	      8.21166613	      0.00000000	    -10.69782340	     -0.26467400	     -8.84472887	    -57.08065673	     12.80892563	      2.68582097	      0.00000000	    -64.74733274	      1.09548655	     -0.08199306
      5.34500000	     35.64869385	      2.12550500	      1.27849884	      0.65049289	      0.67609361	     -0.25597706	    -41.88053976	      2.52816356	     -8.64823809	     -6.56170210	     20.21431837	      8.46261155	      0.00000000	    -10.27203362	     -0.13675678	     -9.02825327	    -55.47205363	     12.95407382	      3.00636897	      0.00000000	    -64.83948444	      0.91944512	      0.08837582
      5.35000000	     35.54333003	      2.00885727	      1.24179637	      0.65552633	      0.67558191	     -0.25618337	    -42.37917645	      2.64465023	     -8.75675224	     -6.30170605	     20.29780287	      8.44350712	      0.00000000	     -9.66548520	     -0.11114246	     -9.01061294	    -53.87559038	     13.14533997	      3.07623061	      0.00000000	    -64.83195169	      0.95789141	      0.28903293
      5.35500000	     35.66345530	      1.99035228	      0.92082627	      0.66072069	      0.67523691	     -0.25607142	    -43.15084116	      2.48786507	     -8.86803420	     -6.02363162	     20.55467145	      8.80464606	      0.00000000	     -9.49784873	      0.02974441	     -9.29610967	    -51.98050044	     13.24042183	      3.40492613	      0.00000000	    -65.01189342	      0.68650277	      0.44933537
      5.36000000	     35.53992922	      1.86528752	      0.92898174	      0.66573509	      0.67459654	     -0.25629138	    -43.60103203	      2.63761718	     -9.01567502	     -5.82248782	     20.62926290	      8.74934921	      0.00000000	     -8.95289305	      0.01753251	     -9.26240417	    -50.19449025	     13.37313541	      3.48971117	      0.00000000	    -65.00500795	      0.76394396	      0.66086913
      5.36500000	     35.57167499	      1.82711304	      0.70351888	      0.67088899	      0.67407455	     -0.25620521	    -44.23686480	      2.55766905	     -9.16225322	     -5.61846682	     20.88350043	      9.00617232	      0.00000000	     -8.74565373	      0.09374975	     -9.50493519	    -48.14622299	     13.40164518	      3.84976371	      0.00000000	    -65.11523464	      0.56512743	      0.79341925
      5.37000000	     35.68532899	      1.72840818	      0.50666659	      0.67602257	      0.67351175	     -0.25625206	    -44.96268516	      2.53462911	     -9.21232730	     -5.41080570	     21.06466784	      9.17233215	      0.00000000	     -8.67970128	      0.13130245	     -9.71083149	    -45.99826659	     13.50697578	      3.99545839	      0.00000000	    -65.29909407	      0.45188750	      0.99173527
      5.37500000	     35.60654298	      1.62150947	      0.46520247	      0.68110740	      0.67277565	     -0.25635802	    -45.43671642	      2.62520937	     -9.33105798	     -5.28207849	     21.23574964	      9.23874100	      0.00000000	     -8.38136132	      0.11094496	     -9.79684567	    -43.84430951	     13.54424486	      4.27634202	      0.00000000	    -65.31693299	      0.44819253	      1.14539791
      5.38000000	     35.63777824	      1.49810417	      0.33066015	      0.68626758	      0.67206180	     -0.25643502	    -46.05049335	      2.65233032	     -9.37719483	     -5.12558135	     21.44348580	      9.41416433	      0.00000000	     -8.31240660	      0.09433543	    -10.01344541	    -41.52588372	     13.62212485	      4.53121139	      0.00000000	    -65.41748994	      0.39642943	      1.31307426
      5.38500000	     35.55320584	      1.38594880	      0.31586826	      0.69139372	      0.67123265	     -0.25655184	    -46.50679945	      2.75652601	     -9.47860761	     -5.03323014	     21.63161673	      9.47918970	      0.00000000	     -8.12170880	      0.05516451	    -10.14140701	    -39.16807745	     13.61820895	      4.91329657	      0.00000000	    -65.42176721	      0.40922549	      1.45345991
      5.39000000	     35.54919832	      1.26174708	      0.22288179	      0.69658428	      0.67042536	     -0.25665300	    -47.05823496	      2.79996533	     -9.51389154	     -4.93764079	     21.83227696	      9.63542828	      0.00000000	     -8.12110095	      0.02450928	    -10.38752144	    -36.65965461	     13.62603913	      5.33501374	      0.00000000	    -65.48847484	      0.37850275	      1.62400212
      5.39500000	     35.52733982	      1.12567390	      0.16710556	      0.70179875	      0.66956549	     -0.25680853	    -47.58244711	      2.87090291	     -9.51959661	     -4.86595778	     22.00405274	      9.74192222	      0.00000000	     -8.14898788	     -0.01604999	    -10.62187243	    -34.07311477	     13.60973400	      5.79464348	      0.00000000	    -65.53397096	      0.38445290	      1.78440939
      5.40000000	     35.52256761	      0.96337152	      0.08416062	      0.70705792	      0.66869062	     -0.25699250	    -48.12257828	      2.92764203	     -9.49057969	     -4.80489534	     22.16673154	      9.87662642	      0.00000000	     -8.26288980	     -0.06602350	    -10.89752353	    -31.39591123	     13.54725134	      6.32552412	      0.00000000	    -65.58663035	      0.39751632	      1.95559171
      5.40500000	     35.46360928	      0.81573826	      0.07575597	      0.71237896	      0.66773105	     -0.25723161	    -48.60295999	      3.02102363	     -9.46939760	     -4.76654264	     22.31954401	      9.99220614	      0.00000000	     -8.35076783	     -0.11242853	    -11.15715106	    -28.67935715	     13.44693123	      6.94663855	      0.00000000	    -65.57736208	      0.45031718	      2.11110439
      5.41000000	     35.55127238	      0.62353662	     -0.04899979	      0.71768434	      0.66686321	     -0.25746576	    -49.23281101	      3.04022675	     -9.31329708	     -4.74126482	     22.44753759	     10.16355547	      0.00000000	     -8.69226406	     -0.16289559	    -11.56589963	    -25.84925383	     13.20407290	      7.58264428	      0.00000000	    -65.71842929	      0.45324140	      2.35153260
      5.41500000	     35.53251549	      0.44143112	     -0.07818887	      0.72311513	      0.66586591	     -0.25779135	    -49.74840965	      3.11410262	     -9.23314024	     -4.74447667	     22.57085780	     10.30106738	      0.00000000	     -8.93096688	     -0.20881183	    -11.88990282	    -23.04210272	     12.96847757	      8.32830265	      0.00000000	    -65.72714620	      0.52609627	      2.54629916
